:SAMPLES-PER-SECOND 30
:FULLY-SPECIFIED
:DEGREES
201
root  3.507288985 33.87622082 3.526155592 -10.50701904 -41.9750061 -7.843017578
lowerback  4.568200111 4.0792799 -4.503009796
upperback  1.116479993 5.119369984 -3.348629951
thorax  -1.490960002 2.545130014 -1.233629942
lowerneck  -10.29800034 4.755090237 -4.017809868
upperneck  12.49050045 5.899919987 8.62444973
head  5.045080185 3.304199934 3.766860008
lclavicle  0 -9.442270133e-015 7.951389973e-016
lhumerus  -1.392289996 -20.20569992 85.15450287
lradius  2.651098692e-031 -2.332492178e-031 138.6580048
lwrist  -7.062250077e-031 -1.765562519e-031 4.367619991
lhand  -1.496451383e-031 -27.76390076 20.11240005
lfingers  90 7.125020027 -90
lthumb  89.89689403 5.08795885 91.16245106
rclavicle  0 -9.442270133e-015 7.951389973e-016
rhumerus  4.577320099 12.4197998 -80.27580261
rradius  -2.650691158e-031 2.332955298e-031 138.647995
rwrist  0 -0 -9.310930252
rhand  -7.920061211e-032 -33.2840004 9.303460121
rfingers  -90 -7.125020027 -90
rthumb  -92.93752616 -24.25625642 -97.11982154
rfemur  2.12274003 2.081259966 17.38369942
rtibia  -0 0 71.30709839
rfoot  -0 -40.8227005 -11.49279976
rtoes  5.373923086 19.29304026 -105.8922705
lfemur  -13.95090008 -4.753580093 6.782259941
ltibia  -0 0 70.69100189
lfoot  5.223594497e-032 -32.32870102 -2.485019922
ltoes  -4.250644065 -19.5611806 -102.515957
202
root  3.626377752 34.13400124 3.401822368 -10.02197266 -42.31199646 -7.348022461
lowerback  5.136250019 4.108660221 -4.817590237
upperback  1.15565002 5.101799965 -3.254519939
thorax  -1.802760005 2.53937006 -1.007099986
lowerneck  -9.829620361 4.890429974 -3.955189943
upperneck  12.49750042 6.083260059 8.453849792
head  4.963220119 3.375799894 3.69769001
lclavicle  0 -9.442270133e-015 7.951389973e-016
lhumerus  -1.402390003 -19.64419937 84.99130249
lradius  2.64967321e-031 -2.334111376e-031 138.6230011
lwrist  -3.531125038e-031 -0 4.7915802
lhand  -1.496451383e-031 -27.76390076 20.11240005
lfingers  90 7.125020027 -90
lthumb  89.89689403 5.08795885 91.16245106
rclavicle  0 -9.442270133e-015 7.951389973e-016
rhumerus  4.191969872 12.86670017 -80.53610229
rradius  -2.643675891e-031 2.340901925e-031 138.4759979
rwrist  7.062250077e-031 -0 -9.517530441
rhand  -7.920061211e-032 -33.2840004 9.303460121
rfingers  -90 -7.125020027 -90
rthumb  -92.93752616 -24.25625642 -97.11982154
rfemur  0.8873130083 2.320499897 17.05139923
rtibia  -0 0 70.79290009
rfoot  -0 -39.73929977 -11.96549988
rtoes  5.373923086 19.29304026 -105.8922705
lfemur  -14.37040043 -4.558000088 6.136700153
ltibia  -0 0 69.69400024
lfoot  7.75580197e-032 -31.38739967 -2.099829912
ltoes  -4.250644065 -19.5611806 -102.515957
203
root  3.742466574 34.43888867 3.302711201 -9.434997559 -42.55599976 -6.945007324
lowerback  5.666689873 4.107110023 -4.938099861
upperback  1.165159941 5.053979874 -3.162009954
thorax  -2.106300116 2.519220114 -0.8840990067
lowerneck  -9.386179924 5.023530006 -3.799170017
upperneck  12.58899975 6.259379864 8.179490089
head  4.919620037 3.442250013 3.584120035
lclavicle  0 -9.442270133e-015 7.951389973e-016
lhumerus  -1.445899963 -19.39760017 84.83390045
lradius  2.649266014e-031 -2.334573542e-031 138.6130066
lwrist  -1.059337512e-030 -1.765562519e-031 4.421110153
lhand  -1.496451383e-031 -27.76390076 20.11240005
lfingers  90 7.125020027 -90
lthumb  89.89689403 5.08795885 91.16245106
rclavicle  0 -9.442270133e-015 7.951389973e-016
rhumerus  4.222579956 13.44719982 -80.75499725
rradius  -2.616990942e-031 2.370696617e-031 137.8269958
rwrist  7.062250077e-031 -0 -9.200460434
rhand  -7.920061211e-032 -33.2840004 9.303460121
rfingers  -90 -7.125020027 -90
rthumb  -92.93752616 -24.25625642 -97.11982154
rfemur  -0.2664270103 2.472110033 16.68449974
rtibia  -0 0 70.19920349
rfoot  -0 -38.62760162 -11.73709965
rtoes  5.373923086 19.29304026 -105.8922705
lfemur  -14.80860043 -4.470880032 5.494009972
ltibia  -0 0 68.63770294
lfoot  5.125228292e-032 -30.54710007 -1.059209943
ltoes  -4.250644065 -19.5611806 -102.515957
204
root  3.868355713 34.76688956 3.218488994 -8.75402832 -42.94599915 -6.541015625
lowerback  5.866700172 4.12375021 -4.851709843
upperback  1.348780036 5.076469898 -3.100820065
thorax  -2.026329994 2.526979923 -0.8769720197
lowerneck  -9.145759583 5.147679806 -3.778300047
upperneck  12.54679966 6.444920063 7.980969906
head  4.861999989 3.515490055 3.519269943
lclavicle  0 -9.442270133e-015 7.951389973e-016
lhumerus  -1.084740043 -19.22780037 84.51570129
lradius  2.648776651e-031 -2.335128752e-031 138.6009979
lwrist  -3.531125038e-031 -1.765562519e-031 4.080760002
lhand  -1.496451383e-031 -27.76390076 20.11240005
lfingers  90 7.125020027 -90
lthumb  89.89689403 5.08795885 91.16245106
rclavicle  0 -9.442270133e-015 7.951389973e-016
rhumerus  3.94404006 13.85980034 -80.76439667
rradius  -2.623106344e-031 2.36392833e-031 137.9750061
rwrist  0 -0 -8.518670082
rhand  -7.920061211e-032 -33.2840004 9.303460121
rfingers  -90 -7.125020027 -90
rthumb  -92.93752616 -24.25625642 -97.11982154
rfemur  -1.553730011 2.828350067 16.25209999
rtibia  -0 0 69.60070038
rfoot  -0 -37.56150055 -11.00590038
rtoes  5.373923086 19.29304026 -105.8922705
lfemur  -15.30099964 -4.437530041 4.788269997
ltibia  -0 0 67.60050201
lfoot  5.392742317e-032 -29.58250046 -0.1081579998
ltoes  -4.250644065 -19.5611806 -102.515957
